<svg width="732" height="177" version="1.1"
     xmlns="http://www.w3.org/2000/svg">
   <desc>https://e-id.cards/
   </desc>

   <g id="barcode" fill="#000000">
      <rect x="0.00" y="0.00" width="6.00" height="150.00" />
      <rect x="9.00" y="0.00" width="3.00" height="150.00" />
      <rect x="18.00" y="0.00" width="3.00" height="150.00" />
      <rect x="33.00" y="0.00" width="3.00" height="150.00" />
      <rect x="42.00" y="0.00" width="6.00" height="150.00" />
      <rect x="60.00" y="0.00" width="3.00" height="150.00" />
      <rect x="66.00" y="0.00" width="3.00" height="150.00" />
      <rect x="75.00" y="0.00" width="12.00" height="150.00" />
      <rect x="90.00" y="0.00" width="3.00" height="150.00" />
      <rect x="99.00" y="0.00" width="3.00" height="150.00" />
      <rect x="108.00" y="0.00" width="12.00" height="150.00" />
      <rect x="123.00" y="0.00" width="3.00" height="150.00" />
      <rect x="132.00" y="0.00" width="3.00" height="150.00" />
      <rect x="138.00" y="0.00" width="3.00" height="150.00" />
      <rect x="147.00" y="0.00" width="12.00" height="150.00" />
      <rect x="165.00" y="0.00" width="3.00" height="150.00" />
      <rect x="171.00" y="0.00" width="12.00" height="150.00" />
      <rect x="189.00" y="0.00" width="3.00" height="150.00" />
      <rect x="198.00" y="0.00" width="9.00" height="150.00" />
      <rect x="213.00" y="0.00" width="3.00" height="150.00" />
      <rect x="222.00" y="0.00" width="6.00" height="150.00" />
      <rect x="231.00" y="0.00" width="3.00" height="150.00" />
      <rect x="237.00" y="0.00" width="9.00" height="150.00" />
      <rect x="252.00" y="0.00" width="6.00" height="150.00" />
      <rect x="264.00" y="0.00" width="3.00" height="150.00" />
      <rect x="270.00" y="0.00" width="9.00" height="150.00" />
      <rect x="285.00" y="0.00" width="6.00" height="150.00" />
      <rect x="297.00" y="0.00" width="3.00" height="150.00" />
      <rect x="303.00" y="0.00" width="6.00" height="150.00" />
      <rect x="315.00" y="0.00" width="3.00" height="150.00" />
      <rect x="330.00" y="0.00" width="3.00" height="150.00" />
      <rect x="339.00" y="0.00" width="6.00" height="150.00" />
      <rect x="348.00" y="0.00" width="9.00" height="150.00" />
      <rect x="363.00" y="0.00" width="3.00" height="150.00" />
      <rect x="378.00" y="0.00" width="6.00" height="150.00" />
      <rect x="387.00" y="0.00" width="3.00" height="150.00" />
      <rect x="396.00" y="0.00" width="3.00" height="150.00" />
      <rect x="411.00" y="0.00" width="3.00" height="150.00" />
      <rect x="420.00" y="0.00" width="6.00" height="150.00" />
      <rect x="429.00" y="0.00" width="3.00" height="150.00" />
      <rect x="438.00" y="0.00" width="6.00" height="150.00" />
      <rect x="450.00" y="0.00" width="9.00" height="150.00" />
      <rect x="462.00" y="0.00" width="3.00" height="150.00" />
      <rect x="477.00" y="0.00" width="3.00" height="150.00" />
      <rect x="483.00" y="0.00" width="6.00" height="150.00" />
      <rect x="495.00" y="0.00" width="3.00" height="150.00" />
      <rect x="504.00" y="0.00" width="3.00" height="150.00" />
      <rect x="510.00" y="0.00" width="6.00" height="150.00" />
      <rect x="528.00" y="0.00" width="3.00" height="150.00" />
      <rect x="537.00" y="0.00" width="3.00" height="150.00" />
      <rect x="546.00" y="0.00" width="12.00" height="150.00" />
      <rect x="561.00" y="0.00" width="3.00" height="150.00" />
      <rect x="576.00" y="0.00" width="3.00" height="150.00" />
      <rect x="585.00" y="0.00" width="6.00" height="150.00" />
      <rect x="594.00" y="0.00" width="3.00" height="150.00" />
      <rect x="600.00" y="0.00" width="12.00" height="150.00" />
      <rect x="618.00" y="0.00" width="3.00" height="150.00" />
      <rect x="627.00" y="0.00" width="3.00" height="150.00" />
      <rect x="633.00" y="0.00" width="9.00" height="150.00" />
      <rect x="648.00" y="0.00" width="6.00" height="150.00" />
      <rect x="660.00" y="0.00" width="6.00" height="150.00" />
      <rect x="669.00" y="0.00" width="9.00" height="150.00" />
      <rect x="684.00" y="0.00" width="3.00" height="150.00" />
      <rect x="693.00" y="0.00" width="6.00" height="150.00" />
      <rect x="708.00" y="0.00" width="9.00" height="150.00" />
      <rect x="720.00" y="0.00" width="3.00" height="150.00" />
      <rect x="726.00" y="0.00" width="6.00" height="150.00" />
   </g>
</svg>
